<svg xmlns="http://www.w3.org/2000/svg" viewBox="0 0 100 100"><path d="M93.086.34H7.86C3.782.34.47 3.545.47 7.505V93.17c0 3.962 3.312 7.17 7.39 7.17h85.226c4.078 0 7.384-3.21 7.384-7.167V7.507c0-3.956-3.303-7.163-7.38-7.163zm-62.3 83.704H15.68V38.9h15.107v45.144zm-7.55-51.312h-.1c-5.07 0-8.354-3.47-8.354-7.806 0-4.425 3.38-7.794 8.55-7.794 5.165 0 8.343 3.37 8.446 7.794 0 4.343-3.28 7.806-8.547 7.806zm62.012 51.312H70.146V59.888c0-6.062-2.188-10.21-7.65-10.21-4.18 0-6.662 2.795-7.75 5.495-.406.968-.506 2.312-.506 3.656v25.217h-15.1s.197-40.913 0-45.147h15.103v6.394c2-3.07 5.584-7.46 13.606-7.46 9.935 0 17.394 6.45 17.394 20.326v25.884zm-31.093-38.6l.094-.14v.14h-.096z"/></svg>